# xmcd
#
# Track frame offsets:
#	150
#	21240
#	34536
#	50359
#	70627
#	88192
#	101780
#	119320
#	135165
#	149208
#	165014
#	182094
#	193922
#
# Disc length: 2749 seconds
#
# Revision: 0
# Processed by: cddbd v1.5.1PL0 Copyright (c) Steve Scherf et al.
# Submitted via: dBpowerAMP V4.0
#
DISCID=af0abb0d
DTITLE=Colin Amey - What My Heart Don't Know
DYEAR=2000
DGENRE=Country
TTITLE0=What My Heart Don't Know
TTITLE1=If I Didn't Call It Love
TTITLE2=She's The Girl
TTITLE3=That's When I'll Stop Lovin' You
TTITLE4=Any Man With Half A Heart
TTITLE5=Nothin' Like A Dream
TTITLE6=What Would I Do Without You
TTITLE7=I Like Where This Is Goin'
TTITLE8=Mr. Right (Where I Used To Be)
TTITLE9=I Could Fall In A Minute
TTITLE10=I'm Dyin' Here
TTITLE11=Might As Well Have Been A Train
TTITLE12=Beer Wages And Champagne Taste
EXTD=
EXTT0=
EXTT1=
EXTT2=
EXTT3=
EXTT4=
EXTT5=
EXTT6=
EXTT7=
EXTT8=
EXTT9=
EXTT10=
EXTT11=
EXTT12=
PLAYORDER=
